# xmcd
#
# Track frame offsets:
#	150
#	22667
#	41655
#	59928
#	74555
#	91231
#	110119
#	125654
#	142001
#	160072
#	177261
#	198036
#	213658
#	230843
#	241815
#	258127
#	274621
#	292294
#	312510
#	332852
#
# Disc length: 4717 seconds
#
# Revision: 3
# Processed by: cddbd v1.5.2PL0 Copyright (c) Steve Scherf et al.
# Submitted via: audiograbber 1.83.01
#
DISCID=3c126b14
DTITLE=Various Artist - Zoom Pop Box 2014 Disc 6
DYEAR=2014
DGENRE=Karaoke
TTITLE0=Sigma and Paloma Faith - Changing 
TTITLE1=Take That - These Days
TTITLE2=Taylor Swift - Shake It Off
TTITLE3=Common Linnetts,The - Calm After The Storm
TTITLE4=Saturdays,The - What You Waiting For
TTITLE5=Script,The - Superheroes
TTITLE6=Vamps,The - Last Night
TTITLE7=Vamps,The - Oh Cecilla (Breaking My Heart)
TTITLE8=Veronicas,The - You Ruin Me
TTITLE9=Wanted,The - Glow In The Dark
TTITLE10=Tiesto - Red Lights
TTITLE11=Tiesto and Matthew Koma - Wasted 
TTITLE12=Tinie Tenpah and Labrinth - Lover Not A Fighter 
TTITLE13=Tom Odell - Real Love
TTITLE14=Train - Angel In Blue Jeans
TTITLE15=Train - Cadillac Cadillac
TTITLE16=Train - Son Of A Prison
TTITLE17=U2 - The Miracle (Of Joey Ramone)
TTITLE18=Will.i.am and Cody Wise - It's My Birthday 
TTITLE19=Zedd and Foxes - Clarity 
EXTD=
EXTT0=
EXTT1=
EXTT2=
EXTT3=
EXTT4=
EXTT5=
EXTT6=
EXTT7=
EXTT8=
EXTT9=
EXTT10=
EXTT11=
EXTT12=
EXTT13=
EXTT14=
EXTT15=
EXTT16=
EXTT17=
EXTT18=
EXTT19=
PLAYORDER=
